inDegrees=no
num_controls=7
num_derivatives=13
num_iterations=36
num_multipliers=7
num_parameters=0
num_slacks=7
num_states=26
objective=0.426579
objective_accelerations=0.057588
objective_balance=0.001115
objective_effort=0.015373
objective_height=0.346495
objective_ligament=0.006009
solver_duration=567.646982
status=Solve_Succeeded
success=true
DataType=double
version=3
OpenSimVersion=4.5
endheader
time	/jointset/ground_pelvis/pelvis_tilt/value	/jointset/ground_pelvis/pelvis_tx/value	/jointset/ground_pelvis/pelvis_ty/value	/jointset/hip_l/hip_flexion_l/value	/jointset/hip_l/hip_adduction_l/value	/jointset/hip_l/hip_rotation_l/value	/jointset/back/lumbar_extension/value	/jointset/patellofemoral_l/patellar_flexion_l/value	/jointset/knee_l/knee_flexion_l/value	/jointset/knee_l/knee_adduction_l/value	/jointset/knee_l/knee_rotation_l/value	/jointset/ankle_l/ankle_angle_l/value	/jointset/subtalar_l/subtalar_angle_l/value	/jointset/ground_pelvis/pelvis_tilt/speed	/jointset/ground_pelvis/pelvis_tx/speed	/jointset/ground_pelvis/pelvis_ty/speed	/jointset/hip_l/hip_flexion_l/speed	/jointset/hip_l/hip_adduction_l/speed	/jointset/hip_l/hip_rotation_l/speed	/jointset/back/lumbar_extension/speed	/jointset/patellofemoral_l/patellar_flexion_l/speed	/jointset/knee_l/knee_flexion_l/speed	/jointset/knee_l/knee_adduction_l/speed	/jointset/knee_l/knee_rotation_l/speed	/jointset/ankle_l/ankle_angle_l/speed	/jointset/subtalar_l/subtalar_angle_l/speed	/forceset/tau_hip_flexion_l	/forceset/tau_hip_adduction_l	/forceset/tau_hip_rotation_l	/forceset/tau_knee_flexion_l	/forceset/tau_ankle_angle_l	/forceset/tau_subtalar_angle_l	/forceset/tau_lumbar_extension	lambda_cid13_p0	lambda_cid13_p1	lambda_cid13_p2	lambda_cid13_p3	lambda_cid13_p4	lambda_cid13_p5	lambda_cid14_p0	/jointset/ground_pelvis/pelvis_tilt/accel	/jointset/ground_pelvis/pelvis_tx/accel	/jointset/ground_pelvis/pelvis_ty/accel	/jointset/hip_l/hip_flexion_l/accel	/jointset/hip_l/hip_adduction_l/accel	/jointset/hip_l/hip_rotation_l/accel	/jointset/back/lumbar_extension/accel	/jointset/patellofemoral_l/patellar_flexion_l/accel	/jointset/knee_l/knee_flexion_l/accel	/jointset/knee_l/knee_adduction_l/accel	/jointset/knee_l/knee_rotation_l/accel	/jointset/ankle_l/ankle_angle_l/accel	/jointset/subtalar_l/subtalar_angle_l/accel	gamma_cid13_p0	gamma_cid13_p1	gamma_cid13_p2	gamma_cid13_p3	gamma_cid13_p4	gamma_cid13_p5	gamma_cid14_p0
0.5	-0.2116664279920191	0.03570090434322702	0.7718844902863335	0.9825217070434979	-0.3641713386180256	-0.001055462303239058	-0.4014797920082659	0.9651673054555406	0.9651673054552483	-0.03380684310711515	-0.174463866473435	0.3232356360266473	0.1665955951760413	-0.7298646963762313	-0.1683633595451169	-0.523063043705235	2.365866342448467	0.03928937332356616	0.5360401874198536	-0.3066574770107865	2.00187511832084	2.001875118320877	0.3135161310086768	0.001702945186145145	0.5326216657442635	0.280627451941718	-0.1039809610689515	0.0820901793444079	-0.00189654064777063	-0.1971515421036766	0.006362436536604155	-0.01952133545948755	0.1168376977332981	-25.60022055434414	17.94352067425801	-8.833473051079473	1.921847470252397	-440.8325735643396	-22.35806045089206	-4.697165160200787	0.3306818843106774	0.3566472906385427	-0.4478182736380459	-1.217645683515991	0.1099051182990223	-0.7962347930332816	1.461150628952923	-1.706424491368262	-1.706424491368275	-0.1909633579791243	0.01034976291663941	-0.9875514448965601	0.0641675884097971	-4.796657812386124e-07	-1.896016376213183e-07	6.751981750832619e-06	3.762288631118475e-07	-1.352700801211342e-06	-1.213910786663004e-06	-8.32446564149921e-07
0.51	-0.2189464424118016	0.03403542878230879	0.7666328168085903	1.00611443682923	-0.3637756732561659	0.004271351569870296	-0.4044741817304761	0.9850970221577698	0.9850970221576418	-0.03069140228407181	-0.1744462683591401	0.3285108194781746	0.1694003424772578	-0.7260321910830285	-0.1647078463011311	-0.5271471532645646	2.35234796482672	0.03983970365682357	0.5292650473858865	-0.2921938152211156	1.983781193862031	1.98378119386205	0.3095689237629336	0.001788843832181366	0.5223418397914531	0.2802682769821445	-0.1085739868784888	0.08322838203831996	-0.002454896654476871	-0.1997951418860663	0.005145153315183805	-0.01895136001298689	0.1203791041366148	-26.2013796129752	18.005614235698	-9.076820018153464	2.007150261689633	-444.2296987871614	-22.33044850340973	-4.083234147773966	0.4254091583155939	0.3736695476773285	-0.3702972199566291	-1.468734122262956	0.02596081599104064	-0.6275747251747349	1.442971785629275	-1.9037669666121	-1.903766966614835	-0.4970062984653112	0.004812522590363511	-1.059185213889667	-0.09482666167249208	-4.55350832687475e-07	2.097192435167156e-07	6.698860871255867e-06	4.221320646453688e-07	-1.290843606739153e-06	-7.897642371842918e-07	-8.030950101953852e-07
0.52	-0.2261849569173578	0.03240724159510991	0.7613439842506788	1.029562022774591	-0.3633748318259446	0.00952852981932076	-0.4073231352684583	1.004837221506715	1.004837221506755	-0.02761551491159726	-0.1744283907369614	0.3336810072614913	0.172199724704172	-0.7215647135301902	-0.1609056848012463	-0.5304948597389169	2.336837574374623	0.04032458699615904	0.5221130626880643	-0.2775702401652291	1.963971647664228	1.963971647664229	0.3056054408934517	0.001758846763943147	0.5116225321019875	0.2795544370813049	-0.1131670126880183	0.08436658473221949	-0.003013252661136469	-0.2024387416684547	0.003927870093760439	-0.01838138456650535	0.12392051053994	-26.79758156174289	18.05719411871131	-9.307469471871112	2.050713124746593	-447.5474567168109	-22.4194274700481	-3.518842628991373	0.4576763362378819	0.3859769418182309	-0.3005376566425729	-1.616048249585639	0.09681571951461669	-0.871603725804349	1.493133282196099	-2.049548839167044	-2.049548839167016	-0.1942184827268577	-0.01282937993835729	-1.07544779222771	-0.006765399843483252	-4.291075840882517e-07	5.93675967684799e-07	6.616464774847725e-06	4.642616842493563e-07	-1.224766699029863e-06	-3.652594181374286e-07	-7.7201250349613e-07
0.53	-0.2333758725538635	0.03081775132336756	0.7560253682525956	1.052845009701343	-0.36296919678888	0.01471326025553749	-0.4100250790647224	1.02437108953051	1.024371089530508	-0.02457964243073708	-0.1744107178768739	0.3387420083309976	0.174990539832517	-0.7165205196914172	-0.1569730566608327	-0.5331001870193948	2.319439916102001	0.04079683144276387	0.5148023585453455	-0.2628123430657965	1.942527981268041	1.94252798126803	0.301542291975801	0.001761131635766069	0.5005130829013347	0.2785515535465427	-0.1176107571609686	0.08520933821433034	-0.003417738447477587	-0.2054809153849921	0.003018821193833355	-0.01795882168050351	0.12731909883886	-27.32079092501321	18.18151603987281	-9.574279105338515	2.094767677044872	-451.0030193157283	-22.46880174026001	-3.002783812719942	0.542457289659784	0.3998999609881911	-0.2215453469640828	-1.849653106197801	0.02053493824007326	-0.6661092570218702	1.468044327219758	-2.232720776465933	-2.232720776467648	-0.5162553053330519	0.005850698092280443	-1.138359642407561	-0.1565152800996545	-4.021966876927199e-07	9.081828193349445e-07	6.486814777335262e-06	4.945287698931343e-07	-1.152726478427992e-06	2.589299376837893e-08	-7.417320808205888e-07
0.54	-0.2405134129755922	0.02926818617519616	0.7506844959650651	1.075944414347347	-0.3625592180811487	0.01982382255062225	-0.4125792586093114	1.043682331843018	1.043682331842977	-0.02158517988085044	-0.1743932035125985	0.3436899816768141	0.1777694330355528	-0.7108896705741188	-0.1529206600870546	-0.5349461176283929	2.300121118225487	0.04119332112963715	0.5072794344619758	-0.2480173898302366	1.919446505407004	1.919446505406982	0.2973234546961923	0.001727147601572445	0.489016987363743	0.2771700520194946	-0.1220545016339137	0.08605209169642189	-0.003822224233710371	-0.2085230891015286	0.002109772293900944	-0.01753625879453279	0.1307176871377863	-27.84051848986216	18.29655105673498	-9.829693181340726	2.099554871547921	-454.4001647854823	-22.62925663457127	-2.533666105743674	0.5750073919430192	0.409930628491052	-0.148658322346638	-2.000276170364208	0.08166476756829154	-0.9140477139345624	1.500544509421576	-2.377110732136851	-2.377110732136911	-0.2253561551184282	-0.02008316114178102	-1.152777059615536	-0.08248899830076338	-3.745471171395703e-07	1.145851514156732e-06	6.304883867962702e-06	5.11671349878808e-07	-1.074088549944969e-06	3.801448701138691e-07	-7.123390702563908e-07
